<?xml version="1.0" standalone="no"?>
<!DOCTYPE svg PUBLIC "-//W3C//DTD SVG 20010904//EN"
    "http://www.w3.org/TR/2001/REC-SVG-20010904/DTD/svg10.dtd">
<svg version="1.0" xmlns="http://www.w3.org/2000/svg"
     width="700.000000pt" height="700.000000pt" viewBox="0 0 700.000000 700.000000"
     preserveAspectRatio="xMidYMid meet">
  <metadata>
    Created by potrace 1.11, written by Peter Selinger 2001-2013
  </metadata>
  <g transform="translate(0.000000,700.000000) scale(0.100000,-0.100000)"
     fill="#000000" stroke="none">
    <path d="M1250 5890 c-190 -127 -352 -236 -360 -243 -13 -11 -15 -284 -15
-2392 l0 -2380 1532 -1 1532 -2 -2 1334 c-1 734 2 1334 7 1334 4 0 65 -38 135
-84 69 -46 132 -86 139 -90 9 -6 12 97 12 501 l0 509 -1308 872 c-720 480
-1312 872 -1318 872 -5 0 -164 -104 -354 -230z"/>
    <path d="M5313 4216 c-88 -29 -145 -79 -185 -165 -22 -45 -22 -53 -24 -626 -1
-319 -2 -583 -3 -587 -1 -4 -9 -9 -19 -12 -26 -9 -133 -114 -169 -166 -93
-137 -125 -335 -78 -490 42 -137 160 -283 280 -347 239 -126 523 -81 705 114
184 196 209 489 61 716 -43 65 -145 167 -181 179 -12 4 -17 214 -6 225 3 4 95
6 203 5 109 0 205 1 213 4 23 6 23 281 0 286 -8 2 -107 3 -220 3 l-205 -1 2
55 c1 31 2 64 2 74 1 16 18 17 219 17 l217 0 0 145 0 145 -217 0 c-201 0 -218
1 -219 18 0 9 0 44 0 77 1 160 -52 256 -177 319 -45 23 -147 29 -199 12z"/>
  </g>
</svg>
